<?xml version="1.0" standalone="no"?>
<!DOCTYPE svg PUBLIC "-//W3C//DTD SVG 20010904//EN"
 "http://www.w3.org/TR/2001/REC-SVG-20010904/DTD/svg10.dtd">
<svg version="1.0" xmlns="http://www.w3.org/2000/svg"
 width="512.000000pt" height="512.000000pt" viewBox="0 0 512.000000 512.000000"
 preserveAspectRatio="xMidYMid meet">

<g transform="translate(0.000000,512.000000) scale(0.100000,-0.100000)"
fill="#000000" stroke="none">
<path d="M2402 5103 c-67 -33 -67 -27 -70 -540 -2 -353 -6 -463 -15 -463 -7 0
-56 -7 -110 -15 -505 -76 -906 -479 -982 -985 -8 -52 -20 -97 -26 -99 -51 -17
-118 -63 -144 -99 -41 -60 -48 -159 -15 -227 25 -52 82 -99 141 -116 25 -8 39
-19 42 -33 3 -11 85 -529 182 -1151 148 -944 181 -1139 202 -1187 30 -67 92
-130 161 -161 46 -21 60 -22 513 -25 460 -3 466 -3 492 18 35 28 37 77 4 108
-22 21 -29 21 -477 24 l-455 3 -38 24 c-21 12 -46 40 -57 60 -13 27 -55 270
-145 842 -69 442 -128 819 -131 837 l-6 32 431 0 431 0 1 -92 c0 -114 13 -155
58 -185 31 -21 45 -23 168 -23 203 0 225 18 231 193 l4 107 430 0 429 0 -6
-32 c-3 -18 -62 -393 -130 -833 -69 -440 -130 -812 -136 -826 -14 -36 -67 -84
-108 -98 -19 -6 -76 -11 -128 -11 -86 0 -96 -2 -118 -25 -32 -31 -32 -69 1
-101 25 -26 27 -26 152 -22 115 3 132 6 184 31 67 33 122 90 153 161 19 40 60
287 200 1181 97 622 179 1140 182 1151 3 14 17 25 42 33 59 17 116 64 141 116
33 68 26 167 -15 227 -26 36 -93 82 -144 99 -6 2 -18 48 -26 102 -76 505 -478
906 -985 983 -52 7 -100 14 -107 14 -9 0 -13 110 -15 463 -3 515 -2 508 -72
541 -48 23 -267 23 -314 -1z m228 -568 l0 -435 -70 0 -70 0 0 435 0 435 70 0
70 0 0 -435z m-300 -1060 l0 -475 -222 0 c-238 -1 -248 -3 -267 -51 -11 -30 8
-83 34 -93 9 -3 468 -6 1019 -6 1000 0 1003 0 1030 -21 36 -28 36 -80 0 -108
l-27 -21 -1337 0 -1337 0 -27 21 c-36 28 -36 80 0 108 25 19 40 21 205 21 97
0 185 3 194 6 26 10 45 63 34 93 -17 44 -36 50 -157 51 -111 0 -112 0 -108 23
3 12 8 45 11 72 23 171 129 383 267 530 169 181 430 307 671 324 16 1 17 -28
17 -474z m300 0 l0 -475 -70 0 -70 0 0 475 0 475 70 0 70 0 0 -475z m366 440
c283 -71 523 -265 654 -530 49 -98 92 -241 102 -337 l6 -48 -484 0 -484 0 0
475 0 475 58 -6 c31 -4 98 -17 148 -29z m-666 -1590 l0 -225 -445 0 c-330 0
-445 3 -445 12 0 12 -58 392 -64 421 -4 16 24 17 475 17 l479 0 0 -225z m300
0 l0 -225 -70 0 -70 0 0 225 0 225 70 0 70 0 0 -225z m1084 18 c-18 -115 -33
-216 -34 -225 0 -17 -28 -18 -445 -18 l-445 0 0 225 0 225 478 0 479 0 -33
-207z m-1084 -468 l0 -75 -70 0 -70 0 0 75 0 75 70 0 70 0 0 -75z"/>
<path d="M1860 1713 c-23 -12 -39 -30 -48 -55 -13 -33 -12 -41 4 -75 39 -79
146 -77 180 2 37 89 -51 171 -136 128z"/>
<path d="M3170 1713 c-23 -12 -39 -30 -48 -55 -13 -33 -12 -41 4 -75 39 -79
146 -77 180 2 37 89 -51 171 -136 128z"/>
<path d="M2524 1421 c-65 -28 -83 -110 -35 -163 24 -27 36 -33 71 -33 35 0 47
6 71 33 20 22 29 43 29 67 0 65 -78 120 -136 96z"/>
<path d="M2035 1261 c-178 -83 -178 -330 0 -412 143 -66 315 47 315 206 0 160
-172 272 -315 206z m140 -156 c14 -13 25 -36 25 -50 0 -33 -42 -75 -75 -75
-33 0 -75 42 -75 75 0 33 42 75 75 75 14 0 37 -11 50 -25z"/>
<path d="M2925 1261 c-178 -83 -178 -330 0 -412 143 -66 315 47 315 206 0 160
-172 272 -315 206z m140 -156 c14 -13 25 -36 25 -50 0 -33 -42 -75 -75 -75
-33 0 -75 42 -75 75 0 33 42 75 75 75 14 0 37 -11 50 -25z"/>
<path d="M2485 739 c-84 -24 -148 -117 -149 -214 0 -233 310 -310 423 -105 19
33 25 59 25 105 -1 157 -144 260 -299 214z m123 -159 c47 -44 15 -130 -48
-130 -38 0 -70 34 -70 75 0 41 32 75 70 75 14 0 36 -9 48 -20z"/>
<path d="M1958 591 c-27 -24 -33 -36 -33 -71 0 -35 6 -47 33 -71 22 -20 43
-29 67 -29 24 0 45 9 67 29 27 24 33 36 33 71 0 35 -6 47 -33 71 -44 39 -90
39 -134 0z"/>
<path d="M3028 591 c-27 -24 -33 -36 -33 -71 0 -35 6 -47 33 -71 22 -20 43
-29 67 -29 24 0 45 9 67 29 27 24 33 36 33 71 0 35 -6 47 -33 71 -44 39 -90
39 -134 0z"/>
</g>
</svg>
