<?xml version="1.0" standalone="no"?>
<!DOCTYPE svg PUBLIC "-//W3C//DTD SVG 20010904//EN"
 "http://www.w3.org/TR/2001/REC-SVG-20010904/DTD/svg10.dtd">
<svg version="1.0" xmlns="http://www.w3.org/2000/svg"
 width="2048.000000pt" height="2048.000000pt" viewBox="0 0 2048.000000 2048.000000"
 preserveAspectRatio="xMidYMid meet">

<g transform="translate(0.000000,2048.000000) scale(0.100000,-0.100000)"
fill="#000000" stroke="none">
<path d="M10385 18483 c-577 -22 -1175 -150 -1710 -365 -1433 -576 -2549
-1806 -2971 -3278 -127 -440 -189 -840 -201 -1292 -4 -162 -10 -238 -17 -238
-78 0 -434 -72 -599 -120 -1227 -358 -2153 -1386 -2381 -2640 -42 -230 -51
-340 -50 -620 0 -283 12 -407 60 -650 177 -888 702 -1664 1467 -2168 421 -278
900 -455 1427 -528 159 -21 554 -30 721 -14 478 43 935 181 1344 406 583 321
1051 796 1374 1396 l52 98 -135 0 c-109 0 -138 3 -150 16 -14 14 -16 166 -16
1524 0 1358 2 1510 16 1524 13 14 52 16 267 16 139 0 262 -3 275 -6 l22 -6 0
-560 0 -560 26 31 c36 43 176 134 264 172 96 40 235 75 336 84 176 16 449 -36
604 -115 287 -145 460 -381 536 -730 26 -119 27 -449 2 -566 -89 -407 -327
-683 -701 -807 -115 -39 -246 -59 -392 -60 l-130 -1 80 -13 c422 -66 912 -76
1335 -28 137 16 481 72 489 81 2 2 -64 4 -147 4 -124 0 -153 3 -166 16 -14 14
-16 166 -16 1524 0 1358 2 1510 16 1524 13 14 52 16 267 16 139 0 262 -3 275
-6 l22 -6 0 -560 0 -560 26 31 c36 43 176 134 264 172 169 72 346 99 525 80
550 -59 893 -391 965 -934 6 -45 10 -146 8 -225 -2 -78 -2 -142 -2 -142 4 0
184 147 257 210 l87 75 0 917 c0 820 2 918 16 932 13 14 52 16 270 16 157 0
263 -4 275 -10 19 -11 19 -36 19 -1378 l0 -1367 55 -81 c244 -359 633 -616
1070 -705 133 -27 381 -36 523 -19 366 42 704 201 970 454 281 269 444 579
513 976 17 97 17 402 0 500 -66 385 -212 671 -481 941 -207 208 -421 339 -690
423 -199 62 -268 71 -515 71 -190 -1 -234 -4 -325 -23 -226 -49 -426 -133
-612 -256 -25 -16 -19 0 56 155 257 533 407 1073 478 1714 17 160 18 776 0
945 -98 948 -426 1802 -977 2545 -279 377 -669 767 -1050 1051 -920 684 -2077
1042 -3220 997z m-5716 -6933 c501 -38 808 -253 912 -636 18 -65 22 -108 23
-239 1 -142 -2 -168 -22 -230 -46 -138 -137 -257 -252 -331 -33 -22 -60 -41
-60 -44 0 -3 26 -18 58 -35 72 -37 207 -170 254 -250 80 -138 118 -271 118
-416 0 -346 -155 -611 -442 -753 -120 -60 -268 -103 -428 -126 -123 -18 -1715
-27 -1736 -10 -12 11 -14 217 -14 1536 0 1440 1 1524 18 1533 23 14 1392 14
1571 1z m11598 -841 c509 -68 829 -395 893 -911 13 -101 10 -421 -3 -435 -5
-4 -379 -9 -833 -11 l-824 -2 24 -66 c44 -121 127 -210 250 -268 100 -48 193
-66 333 -66 200 1 382 55 510 152 l65 49 171 -167 c95 -92 176 -175 181 -186
11 -23 -19 -57 -112 -129 -333 -253 -894 -325 -1323 -170 -399 146 -640 473
-689 941 -54 506 168 948 578 1154 93 47 225 90 322 106 41 6 82 13 90 15 40
8 298 4 367 -6z m-9673 -65 c14 -14 16 -85 16 -627 0 -663 1 -678 56 -793 31
-66 112 -156 171 -191 112 -65 285 -83 416 -43 130 40 243 142 307 274 59 124
60 134 60 783 0 575 1 593 19 603 12 6 118 10 275 10 218 0 257 -2 270 -16 14
-14 16 -125 16 -1079 0 -954 -2 -1065 -16 -1079 -22 -23 -475 -24 -497 -2 -9
10 -19 58 -27 131 l-13 116 -36 -34 c-87 -83 -228 -170 -337 -208 -157 -55
-390 -67 -548 -30 -303 72 -510 265 -622 578 -70 195 -74 246 -74 963 0 598 1
640 18 649 10 6 118 11 274 11 220 0 259 -2 272 -16z"/>
<path d="M3700 10665 l0 -326 508 3 c493 3 509 4 573 26 140 47 209 135 209
266 0 155 -101 274 -280 331 -49 16 -111 19 -532 23 l-478 4 0 -327z"/>
<path d="M3700 9419 l0 -360 508 3 c554 4 553 4 687 67 127 59 185 143 185
265 0 129 -74 234 -218 309 -141 74 -166 77 -694 77 l-468 0 0 -361z"/>
<path d="M15892 10180 c-100 -26 -186 -74 -252 -140 -50 -50 -120 -161 -120
-189 0 -8 151 -11 541 -11 l542 0 -7 32 c-29 147 -164 272 -338 313 -91 21
-274 19 -366 -5z"/>
<path d="M9645 10141 c-244 -70 -408 -276 -422 -531 -12 -199 43 -349 171
-476 118 -116 242 -165 421 -165 275 0 490 168 560 436 20 77 20 252 0 330
-52 202 -212 364 -407 410 -85 20 -247 18 -323 -4z"/>
<path d="M12345 10141 c-244 -70 -408 -276 -422 -531 -11 -198 42 -348 170
-475 117 -116 242 -166 422 -166 275 0 490 168 560 436 20 77 20 252 0 330
-51 201 -207 359 -401 409 -83 22 -250 20 -329 -3z"/>
<path d="M9165 8640 c-4 -45 -5 -83 -3 -85 6 -6 319 -83 363 -89 40 -6 40 -6
-10 13 -118 43 -196 93 -283 181 l-60 61 -7 -81z"/>
<path d="M11863 8624 c-6 -55 -9 -101 -7 -103 3 -4 165 39 173 46 3 2 -13 18
-35 36 -21 17 -57 51 -80 75 l-41 44 -10 -98z"/>
<path d="M12332 7340 c-1009 -79 -1895 -686 -2328 -1595 -122 -256 -202 -523
-245 -815 -27 -184 -32 -527 -11 -700 84 -674 376 -1259 861 -1722 413 -396
941 -651 1531 -743 164 -26 532 -31 710 -11 787 91 1473 483 1944 1110 306
407 489 877 546 1403 16 147 8 541 -14 678 -83 507 -284 969 -592 1355 -87
109 -315 337 -424 424 -348 278 -774 478 -1204 566 -229 47 -549 67 -774 50z"/>
</g>
</svg>
